<svg width="64" height="63" viewBox="0 0 64 63" fill="none" xmlns="http://www.w3.org/2000/svg">
<g id="logo-instagram 2">
<g id="Group">
<path id="Vector" d="M32.1945 5.62122C40.5383 5.62122 41.5264 5.65247 44.8226 5.80277C46.8044 5.82702 48.7674 6.19093 50.6262 6.87867C51.9742 7.39853 53.1984 8.19488 54.22 9.21648C55.2416 10.2381 56.0379 11.4623 56.5578 12.8103C57.2455 14.6691 57.6094 16.632 57.6337 18.6139C57.7825 21.91 57.8152 22.8981 57.8152 31.2419C57.8152 39.5857 57.784 40.5738 57.6337 43.87C57.6094 45.8518 57.2455 47.8148 56.5578 49.6736C56.0379 51.0216 55.2416 52.2457 54.22 53.2673C53.1984 54.2889 51.9742 55.0853 50.6262 55.6052C48.7674 56.2929 46.8044 56.6568 44.8226 56.681C41.5279 56.8299 40.5398 56.8626 32.1945 56.8626C23.8492 56.8626 22.8611 56.8313 19.5665 56.681C17.5847 56.6568 15.6217 56.2929 13.7629 55.6052C12.4149 55.0853 11.1907 54.2889 10.1691 53.2673C9.1475 52.2457 8.35114 51.0216 7.83128 49.6736C7.14354 47.8148 6.77964 45.8518 6.75538 43.87C6.60657 40.5738 6.57383 39.5857 6.57383 31.2419C6.57383 22.8981 6.60509 21.91 6.75538 18.6139C6.77964 16.632 7.14354 14.6691 7.83128 12.8103C8.35114 11.4623 9.1475 10.2381 10.1691 9.21648C11.1907 8.19488 12.4149 7.39853 13.7629 6.87867C15.6217 6.19093 17.5847 5.82702 19.5665 5.80277C22.8626 5.65396 23.8507 5.62122 32.1945 5.62122ZM32.1945 -0.00976562C23.7123 -0.00976562 22.6439 0.0259488 19.3105 0.177735C16.7168 0.229325 14.1507 0.720418 11.7212 1.63013C9.63709 2.41535 7.74943 3.64586 6.1899 5.2358C4.59852 6.79589 3.36696 8.68463 2.58125 10.7701C1.67154 13.1995 1.18045 15.7657 1.12886 18.3594C0.980051 21.6898 0.944336 22.7582 0.944336 31.2404C0.944336 39.7226 0.98005 40.7911 1.13184 44.1244C1.18343 46.7181 1.67452 49.2843 2.58423 51.7138C3.36907 53.7989 4.5996 55.6876 6.1899 57.248C7.75029 58.8383 9.639 60.0689 11.7242 60.8537C14.1536 61.7634 16.7198 62.2545 19.3135 62.3061C22.6469 62.4549 23.7108 62.4936 32.1975 62.4936C40.6842 62.4936 41.7482 62.4579 45.0815 62.3061C47.6752 62.2545 50.2414 61.7634 52.6708 60.8537C54.7461 60.0493 56.6307 58.8206 58.204 57.2463C59.7773 55.6719 61.0047 53.7866 61.8078 51.7108C62.7175 49.2813 63.2086 46.7151 63.2602 44.1214C63.409 40.7911 63.4447 39.7226 63.4447 31.2404C63.4447 22.7582 63.409 21.6898 63.2572 18.3564C63.2056 15.7627 62.7145 13.1966 61.8048 10.7671C61.02 8.68192 59.7895 6.79321 58.1992 5.23282C56.6388 3.64252 54.7501 2.41199 52.6649 1.62715C50.2354 0.717442 47.6693 0.226349 45.0756 0.174759C41.7452 0.025949 40.6767 -0.00976562 32.1945 -0.00976562Z" fill="url(#paint0_linear_10388_2466)"/>
<path id="Vector_2" d="M32.2001 15.209C29.0261 15.209 25.9235 16.1502 23.2844 17.9135C20.6454 19.6769 18.5885 22.1832 17.3739 25.1155C16.1593 28.0478 15.8415 31.2745 16.4607 34.3875C17.0799 37.5004 18.6083 40.3598 20.8526 42.6041C23.0969 44.8485 25.9564 46.3769 29.0693 46.9961C32.1823 47.6153 35.4089 47.2975 38.3413 46.0829C41.2736 44.8682 43.7799 42.8114 45.5433 40.1723C47.3066 37.5333 48.2478 34.4306 48.2478 31.2567C48.2478 27.0006 46.557 22.9188 43.5475 19.9093C40.538 16.8997 36.4562 15.209 32.2001 15.209ZM32.2001 41.6734C30.1398 41.6734 28.1259 41.0625 26.4128 39.9179C24.6998 38.7733 23.3647 37.1464 22.5763 35.243C21.7878 33.3396 21.5816 31.2451 21.9835 29.2245C22.3854 27.2038 23.3775 25.3478 24.8343 23.891C26.2911 22.4342 28.1472 21.4421 30.1679 21.0401C32.1885 20.6382 34.283 20.8445 36.1864 21.6329C38.0898 22.4213 39.7167 23.7565 40.8613 25.4695C42.0059 27.1825 42.6168 29.1965 42.6168 31.2567C42.6168 34.0194 41.5193 36.6689 39.5658 38.6224C37.6123 40.576 34.9628 41.6734 32.2001 41.6734Z" fill="url(#paint1_linear_10388_2466)"/>
<path id="Vector_3" d="M48.8789 18.3145C50.95 18.3145 52.629 16.6356 52.629 14.5645C52.629 12.4934 50.95 10.8145 48.8789 10.8145C46.8078 10.8145 45.1289 12.4934 45.1289 14.5645C45.1289 16.6356 46.8078 18.3145 48.8789 18.3145Z" fill="url(#paint2_linear_10388_2466)"/>
</g>
</g>
<defs>
<linearGradient id="paint0_linear_10388_2466" x1="32.1945" y1="-0.00976563" x2="32.1945" y2="62.4936" gradientUnits="userSpaceOnUse">
<stop stop-color="#BEBD7F"/>
<stop offset="1" stop-color="#67583E"/>
</linearGradient>
<linearGradient id="paint1_linear_10388_2466" x1="32.2001" y1="15.209" x2="32.2001" y2="47.3044" gradientUnits="userSpaceOnUse">
<stop stop-color="#BEBD7F"/>
<stop offset="1" stop-color="#67583E"/>
</linearGradient>
<linearGradient id="paint2_linear_10388_2466" x1="48.8789" y1="10.8145" x2="48.8789" y2="18.3145" gradientUnits="userSpaceOnUse">
<stop stop-color="#BEBD7F"/>
<stop offset="1" stop-color="#67583E"/>
</linearGradient>
</defs>
</svg>
